<svg width="72" height="72" viewBox="0 0 72 72" fill="none" xmlns="http://www.w3.org/2000/svg">
<circle cx="36" cy="36" r="36" fill="#D6E1F5"/>
<circle cx="35.998" cy="36" r="25" fill="#2545E3"/>
<path opacity="0.4" d="M36.1101 48.5C35.9553 48.5 35.8005 48.4645 35.6608 48.3921L31.1594 46.062C29.8821 45.4001 28.883 44.6573 28.1027 43.7919C26.3951 41.8994 25.445 39.47 25.4299 36.9499L25.377 28.6553C25.3707 27.698 25.9886 26.8388 26.9123 26.5152L35.1776 23.6335C35.6684 23.4582 36.2158 23.4558 36.7154 23.6249L45.0121 26.4086C45.9409 26.7187 46.5688 27.5718 46.5738 28.5279L46.6267 36.8285C46.6431 39.345 45.7257 41.7842 44.0444 43.6976C43.273 44.5752 42.2826 45.329 41.0179 46.0032L36.5568 48.386C36.4184 48.4608 36.2649 48.4988 36.1101 48.5Z" fill="#D6E1F5"/>
<path d="M35.1501 38.9011C34.9084 38.9024 34.6668 38.8153 34.4806 38.6364L32.0845 36.332C31.7146 35.9741 31.7108 35.3931 32.077 35.0327C32.4432 34.6711 33.0409 34.6674 33.4122 35.0241L35.1362 36.6813L39.3456 32.531C39.7131 32.1694 40.3108 32.1657 40.6808 32.5224C41.0521 32.8803 41.0558 33.4625 40.6896 33.8217L35.8158 38.6278C35.632 38.8092 35.3917 38.8999 35.1501 38.9011Z" fill="#D6E1F5"/>
</svg>
