<svg width="68" height="28" viewBox="0 0 68 28" fill="none" xmlns="http://www.w3.org/2000/svg">
<path d="M51.7961 0.824707V13.9064L51.6302 14.0442L51.4644 14.1821L51.3054 14.3268L51.1534 14.4715L51.0083 14.6163L50.8631 14.7679L50.7249 14.9195L50.5867 15.0712V0.824707H36.0535V12.7347H34.851V0.824707H20.3178V12.7554H19.1154V0.824707H4.58215V14.4233L0.871094 26.7537H4.13295L5.77079 21.295H6.24072L8.94971 26.7537H12.8888L10.2627 21.295H16.2198L14.5681 26.7537H18.1271L19.7581 21.3088H20.5459V21.2949H21.6654H21.7552H28.4794L26.9037 26.7399H30.4973L32.0246 21.2949H33.6417L33.6831 26.7399H36.6962L40.1584 21.2949H42.4251L41.2503 26.7399H44.7886L45.9427 21.2949H47.9883L47.9744 21.6051L47.9818 21.9221L47.9956 22.2254L48.0232 22.5287L48.0439 22.6734L48.0646 22.8181L48.0922 22.9629L48.1199 23.1076L48.1544 23.2524L48.1889 23.3902L48.2303 23.5281L48.2718 23.6659L48.3202 23.8038L48.3686 23.9347L48.4239 24.0657L48.4792 24.1897L48.5414 24.3207L48.6036 24.4447L48.6728 24.5619L48.7419 24.686L48.8179 24.8031L48.9009 24.9134L48.9838 25.0306L49.0736 25.134L49.1635 25.2443L49.2533 25.3476L49.357 25.451L49.4606 25.5475L49.5919 25.6578L49.7232 25.7681L49.8615 25.8715L50.0066 25.9679L50.1517 26.0644L50.2968 26.154L50.4489 26.2298L50.6078 26.3125L50.7598 26.3814L50.9188 26.4504L51.0777 26.5124L51.2436 26.5744L51.4095 26.6296L51.5753 26.6779L51.7412 26.7261L51.907 26.7675L52.2387 26.8432L52.5774 26.8984L52.9091 26.9467L53.2408 26.988L53.5656 27.0156L53.8835 27.0294L54.1945 27.0432H54.4916L54.8925 27.0367L55.2933 27.0301L55.701 27.0094L56.1087 26.9888L56.5165 26.9543L56.9242 26.9198L57.3319 26.8784L57.7397 26.8302L58.1543 26.775L58.5689 26.7129L58.9836 26.644L59.3982 26.5751L59.8129 26.4993L60.2275 26.4166L60.6422 26.3339L61.0637 26.2374L62.2938 21.2956H66.3297V0.825345H51.7965L51.7961 0.824707ZM5.92973 20.7849L5.95045 20.7092L5.99886 20.7849H5.92973ZM18.5901 13.4515L18.3828 14.1476L16.4478 20.5575L16.3718 20.7849H10.0139L9.52328 19.7373L16.3718 12.7554H11.9697L6.61387 18.5105L8.34846 12.7554H5.10043V1.34164H18.5901V13.4515H18.5901ZM22.3427 18.8689L22.239 18.8754L22.1422 18.8819L22.0386 18.8885H21.928H21.7829H21.6585L21.541 18.895H21.4304L20.5666 18.8885L20.9674 17.4135L21.154 16.6829L21.6101 14.9667H21.7552H21.9073L22.0524 14.9602H22.1906H22.861L23.2687 14.9667L23.6419 14.9806L23.8077 14.9871L23.9667 15.0009L24.1187 15.0216L24.2569 15.0423L24.3813 15.063L24.4988 15.0975L24.6094 15.132L24.7061 15.1733L24.789 15.2147L24.8651 15.2699L24.9342 15.325L24.9895 15.394L25.024 15.4491L25.0516 15.5043L25.0792 15.5664L25.0999 15.6353L25.1138 15.7111L25.1211 15.7868V15.8696V15.9591L25.1138 16.0556L25.1073 16.1521L25.0865 16.2624L25.0658 16.3727L25.0036 16.607L24.9276 16.8689L24.8515 17.0895L24.7686 17.3032L24.6788 17.503L24.582 17.6891L24.5336 17.7718L24.4852 17.8545L24.4298 17.9373L24.3676 18.013L24.3054 18.0888L24.2432 18.1577L24.174 18.2266L24.1049 18.2887L24.0289 18.3439L23.9528 18.4059L23.8699 18.4541L23.78 18.5093L23.6902 18.5576L23.5935 18.5989L23.4967 18.6403L23.393 18.6748L23.2825 18.7162L23.165 18.7437L23.0406 18.7713L22.9162 18.7988L22.778 18.8195L22.6398 18.8402L22.4947 18.854L22.3426 18.8678L22.3427 18.8689ZM32.1697 20.7849L33.5864 15.7535L33.6417 20.7849H32.1697H32.1697ZM34.3258 12.7347H30.9534L28.6314 20.7849H25.0517L25.2175 20.716L25.3834 20.6471L25.5423 20.5782L25.7013 20.5024L25.8533 20.4266L25.9984 20.337L26.1436 20.2543L26.2818 20.1647L26.42 20.0682L26.5513 19.9717L26.6757 19.8752L26.8001 19.765L26.9175 19.6616L27.0281 19.5444L27.1387 19.4341L27.2424 19.3101L27.346 19.1929L27.4428 19.0619L27.5326 18.9379L27.6224 18.8L27.7054 18.6622L27.7814 18.5243L27.8574 18.3796L27.9266 18.228L27.9957 18.0763L28.0579 17.9247L28.1132 17.7662L28.1685 17.6008L28.2099 17.4354L28.2584 17.2699L28.2929 17.0907L28.3274 16.9184L28.3758 16.6427L28.4173 16.3808L28.4449 16.1327L28.4656 15.8984L28.4729 15.664L28.4656 15.4504L28.4591 15.2367L28.4315 15.0368L28.4038 14.8507L28.3554 14.6646L28.307 14.4923L28.2379 14.3269L28.1618 14.1684L28.0789 14.0099L27.9822 13.8651L27.8716 13.7273L27.7818 13.6308L27.6919 13.5343L27.5952 13.4516L27.4915 13.3758L27.3809 13.3L27.2704 13.2311L27.1529 13.1691L27.0354 13.1139L26.911 13.0587L26.7866 13.0173L26.6553 12.976L26.524 12.9346L26.3858 12.9001L26.2476 12.8726L26.1094 12.845L25.9642 12.8243L25.6671 12.783L25.3699 12.7623L25.0658 12.7416L24.7549 12.735H24.1329H23.5179H23.3244H22.9788H22.5503H22.0735H21.6105H21.2166H20.9402H20.8365V1.34201H34.3262V12.735L34.3258 12.7347ZM42.5219 20.7849H40.4971L43.5654 15.9603L42.5219 20.7849ZM50.0615 12.9621L50.0542 15.7535L49.8814 15.9948L49.7225 16.2429L49.5635 16.491L49.4184 16.7391L49.2802 16.9873L49.142 17.2423L49.0245 17.4904L48.907 17.7385L48.7964 17.9798L48.6997 18.2279L48.6029 18.4691L48.52 18.7035L48.444 18.9378L48.3748 19.1652L48.3126 19.3858L48.2573 19.6063L48.2228 19.7511L48.1882 19.9027L48.1537 20.0475L48.1261 20.1991L48.0985 20.3438L48.0778 20.4886L48.057 20.6333L48.0432 20.7849H46.0599L47.753 12.7554L42.0447 12.7488L36.9377 20.7853H36.5645V1.34199H50.0612V12.9625L50.0615 12.9621ZM57.843 24.0726L57.5596 24.1208L57.2694 24.1622L56.9791 24.2035L56.6958 24.238L56.4124 24.2656L56.1291 24.2863L55.8527 24.3001H55.5762H55.3966L55.2169 24.2936L55.0441 24.2797L54.8714 24.2591L54.7055 24.2315L54.5466 24.204L54.3876 24.1695L54.2356 24.1281L54.0904 24.0799L53.9453 24.0316L53.8071 23.9696L53.6758 23.9075L53.5445 23.8318L53.4201 23.756L53.3026 23.6733L53.1921 23.5905L53.0815 23.4941L52.9847 23.3907L52.888 23.2873L52.7981 23.1701L52.7152 23.053L52.6392 22.922L52.57 22.791L52.5009 22.6532L52.4456 22.5085L52.3972 22.3499L52.3557 22.1914L52.3143 22.026L52.2867 21.8537L52.266 21.6745L52.2522 21.4884L52.2448 21.2954H58.5336L57.8425 24.073L57.843 24.0726ZM65.8179 20.7849H62.4179L62.9776 18.538H56.1637L55.6039 20.7849H52.3075V20.3231L52.3489 20.1302L52.3834 19.9372L52.4249 19.7304L52.4663 19.5236L52.5285 19.2962L52.5908 19.0687L52.6599 18.8413L52.7359 18.6207L52.8189 18.4002L52.9087 18.1796L53.0054 17.966L53.1022 17.7523L53.2128 17.5386L53.3233 17.3388L53.4408 17.132L53.5721 16.939L53.7034 16.746L53.8347 16.5599L53.9799 16.3807L54.1319 16.2084L54.2908 16.043L54.4498 15.8914L54.6226 15.7397L54.7953 15.595L54.975 15.464L55.1685 15.34L55.362 15.2297L55.5624 15.1263L55.7697 15.0298L55.984 14.9471L56.2051 14.8782L56.4332 14.823L56.6681 14.7748L56.91 14.7403L57.1588 14.7196L57.4145 14.7131L57.6149 14.7196L57.8153 14.7334L58.0157 14.761L58.2092 14.8023L58.306 14.8299L58.3958 14.8574L58.4856 14.885L58.5686 14.9264L58.6515 14.9609L58.7344 15.0091L58.8105 15.0573L58.8865 15.1056L58.9556 15.1676L59.0248 15.2296L59.087 15.2917L59.1492 15.3675L59.2045 15.4364L59.253 15.5191L59.2944 15.6087L59.3358 15.6983L59.3704 15.7948L59.398 15.8982L59.4187 16.0016L59.4394 16.1187L59.4467 16.2359V16.36V16.4909L59.4329 16.6288H63.4964L63.5586 16.3462L63.614 16.0222L63.6416 15.8499L63.6554 15.6638L63.6692 15.4777V15.2848L63.6627 15.0849L63.642 14.8781L63.6213 14.7816L63.6075 14.6782L63.5798 14.5748L63.5522 14.4715L63.5177 14.3612L63.4832 14.2578L63.4417 14.1544L63.3933 14.051L63.3449 13.9476L63.2827 13.8443L63.2204 13.7409L63.1513 13.6375L63.0684 13.5272L62.9785 13.4238L62.8887 13.3204L62.7919 13.2239L62.6883 13.1275L62.5777 13.0379L62.4671 12.9551L62.3497 12.8724L62.2253 12.7897L62.1009 12.7208L61.9696 12.6519L61.8314 12.583L61.6931 12.5209L61.548 12.4589L61.396 12.4037L61.2439 12.3485L61.0919 12.3003L60.9261 12.2589L60.7671 12.2176L60.5943 12.1762L60.4216 12.1417L60.2488 12.1072L60.0691 12.0797L59.8825 12.059L59.5025 12.0176L59.1155 11.9831L58.7077 11.9693L58.2931 11.9628L57.9821 11.9693L57.6573 11.9758L57.3187 11.9965L56.9662 12.0241L56.6 12.0654L56.2268 12.1137L55.8467 12.1757L55.4597 12.2584L55.2662 12.2998L55.0658 12.348L54.8723 12.4032L54.6719 12.4584L54.4715 12.5204L54.271 12.5893L54.0706 12.6583L53.8771 12.734L53.6767 12.8167L53.4763 12.9063L53.2828 12.9959L53.0824 13.0924L52.8889 13.1958L52.6954 13.3061L52.5019 13.4164L52.3084 13.5404V1.34099H65.8188V20.7843L65.8179 20.7849Z" fill="#00338D"/>
</svg>
