<svg width="18" height="19" viewBox="0 0 18 19" fill="none" xmlns="http://www.w3.org/2000/svg">
<path d="M18 11.3V17.06C18 17.4419 17.8645 17.8082 17.6234 18.0782C17.3823 18.3483 17.0553 18.5 16.7143 18.5H1.28571C0.944722 18.5 0.617695 18.3483 0.376577 18.0782C0.135459 17.8082 0 17.4419 0 17.06V11.3C0 10.9181 0.135459 10.5518 0.376577 10.2818C0.617695 10.0117 0.944722 9.86 1.28571 9.86H4.5C4.6705 9.86 4.83401 9.93586 4.95457 10.0709C5.07513 10.2059 5.14286 10.389 5.14286 10.58C5.14286 10.771 5.07513 10.9541 4.95457 11.0891C4.83401 11.2241 4.6705 11.3 4.5 11.3H1.28571V17.06H16.7143V11.3H13.5C13.3295 11.3 13.166 11.2241 13.0454 11.0891C12.9249 10.9541 12.8571 10.771 12.8571 10.58C12.8571 10.389 12.9249 10.2059 13.0454 10.0709C13.166 9.93586 13.3295 9.86 13.5 9.86H16.7143C17.0553 9.86 17.3823 10.0117 17.6234 10.2818C17.8645 10.5518 18 10.9181 18 11.3ZM8.54518 11.0894C8.60488 11.1563 8.67578 11.2095 8.75382 11.2457C8.83187 11.2819 8.91552 11.3006 9 11.3006C9.08448 11.3006 9.16813 11.2819 9.24618 11.2457C9.32422 11.2095 9.39512 11.1563 9.45482 11.0894L13.312 6.7694C13.4326 6.6343 13.5004 6.45106 13.5004 6.26C13.5004 6.06894 13.4326 5.8857 13.312 5.7506C13.1913 5.6155 13.0277 5.5396 12.8571 5.5396C12.6866 5.5396 12.5229 5.6155 12.4023 5.7506L9.64286 8.8421V1.22C9.64286 1.02904 9.57513 0.845909 9.45457 0.710883C9.33401 0.575857 9.1705 0.5 9 0.5C8.8295 0.5 8.66599 0.575857 8.54543 0.710883C8.42487 0.845909 8.35714 1.02904 8.35714 1.22V8.8421L5.59768 5.7506C5.47705 5.6155 5.31345 5.5396 5.14286 5.5396C4.97227 5.5396 4.80866 5.6155 4.68804 5.7506C4.56741 5.8857 4.49964 6.06894 4.49964 6.26C4.49964 6.45106 4.56741 6.6343 4.68804 6.7694L8.54518 11.0894ZM14.7857 14.18C14.7857 13.9664 14.7292 13.7576 14.6232 13.58C14.5172 13.4024 14.3666 13.264 14.1904 13.1822C14.0142 13.1005 13.8204 13.0791 13.6333 13.1208C13.4463 13.1624 13.2744 13.2653 13.1396 13.4163C13.0047 13.5674 12.9129 13.7598 12.8757 13.9693C12.8385 14.1788 12.8576 14.396 12.9305 14.5933C13.0035 14.7906 13.1271 14.9593 13.2857 15.078C13.4443 15.1967 13.6307 15.26 13.8214 15.26C14.0772 15.26 14.3224 15.1462 14.5033 14.9437C14.6841 14.7411 14.7857 14.4664 14.7857 14.18Z" fill="white"/>
</svg>
