<svg width="160" height="80" viewBox="0 0 160 80" fill="none" xmlns="http://www.w3.org/2000/svg">
<g filter="url(#filter0_i_3393_31101)">
<rect width="160" height="80" rx="8" fill="url(#paint0_linear_3393_31101)"/>
<path d="M22.1094 26.7969H26.375V32.5312C25.776 32.7292 25.1562 32.8828 24.5156 32.9922C23.875 33.1016 23.1562 33.1562 22.3594 33.1562C21.1979 33.1562 20.2135 32.9271 19.4062 32.4688C18.6042 32.0052 17.9948 31.3359 17.5781 30.4609C17.1615 29.5807 16.9531 28.5208 16.9531 27.2812C16.9531 26.0885 17.1849 25.0547 17.6484 24.1797C18.112 23.2995 18.7865 22.6198 19.6719 22.1406C20.5573 21.6562 21.6302 21.4141 22.8906 21.4141C23.5104 21.4141 24.1094 21.4766 24.6875 21.6016C25.2708 21.7214 25.8047 21.888 26.2891 22.1016L25.6328 23.6484C25.2474 23.4661 24.8151 23.3125 24.3359 23.1875C23.8568 23.0625 23.3594 23 22.8438 23C22.026 23 21.3203 23.1771 20.7266 23.5312C20.138 23.8854 19.6849 24.3854 19.3672 25.0312C19.0495 25.6719 18.8906 26.4297 18.8906 27.3047C18.8906 28.1536 19.0182 28.8984 19.2734 29.5391C19.5286 30.1797 19.9271 30.6797 20.4688 31.0391C21.0156 31.3932 21.7214 31.5703 22.5859 31.5703C23.0182 31.5703 23.3854 31.5469 23.6875 31.5C23.9896 31.4531 24.2682 31.401 24.5234 31.3438V28.3984H22.1094V26.7969ZM32.9603 21.5781C33.9447 21.5781 34.7572 21.6979 35.3978 21.9375C36.0436 22.1771 36.5228 22.5417 36.8353 23.0312C37.153 23.5208 37.3119 24.1432 37.3119 24.8984C37.3119 25.4609 37.2077 25.9401 36.9994 26.3359C36.791 26.7318 36.5176 27.0599 36.1791 27.3203C35.8405 27.5807 35.4785 27.7891 35.0931 27.9453L38.3353 33H36.2181L33.4603 28.4219H31.6244V33H29.7494V21.5781H32.9603ZM32.8353 23.1406H31.6244V26.875H32.9213C33.791 26.875 34.4213 26.7135 34.8119 26.3906C35.2077 26.0677 35.4056 25.5911 35.4056 24.9609C35.4056 24.2995 35.1947 23.8307 34.7728 23.5547C34.3561 23.2786 33.7103 23.1406 32.8353 23.1406ZM47.6863 33L46.5691 29.8281H42.2019L41.0847 33H39.1081L43.3581 21.5312H45.4363L49.6784 33H47.6863ZM46.0847 28.2188L44.9988 25.0938C44.9571 24.9583 44.8972 24.7682 44.8191 24.5234C44.7409 24.2734 44.6628 24.0208 44.5847 23.7656C44.5066 23.5052 44.4415 23.2865 44.3894 23.1094C44.3373 23.3229 44.2722 23.5625 44.1941 23.8281C44.1211 24.0885 44.0482 24.3333 43.9753 24.5625C43.9076 24.7917 43.8555 24.9688 43.8191 25.0938L42.7253 28.2188H46.0847ZM61.0997 27.1797C61.0997 28.4661 60.8601 29.5417 60.3809 30.4062C59.9018 31.2656 59.2065 31.9141 58.295 32.3516C57.3835 32.7839 56.2846 33 54.9981 33H51.8262V21.5781H55.3419C56.5242 21.5781 57.545 21.7917 58.4044 22.2188C59.2637 22.6406 59.9278 23.2682 60.3966 24.1016C60.8653 24.9297 61.0997 25.9557 61.0997 27.1797ZM59.1466 27.2344C59.1466 26.2969 58.9981 25.526 58.7012 24.9219C58.4096 24.3177 57.9773 23.8698 57.4044 23.5781C56.8367 23.2812 56.1361 23.1328 55.3028 23.1328H53.7012V31.4297H55.0294C56.4096 31.4297 57.4408 31.0781 58.1231 30.375C58.8054 29.6719 59.1466 28.625 59.1466 27.2344ZM64.2006 33V21.5781H66.0756V33H64.2006ZM76.2 33H69.7313V21.5781H76.2V23.1562H71.6063V26.2578H75.9109V27.8281H71.6063V31.4141H76.2V33ZM88.84 33H86.5353L80.9416 23.8828H80.8713C80.8921 24.1901 80.9103 24.5156 80.9259 24.8594C80.9468 25.2031 80.9624 25.5573 80.9728 25.9219C80.9884 26.2865 81.0015 26.6562 81.0119 27.0312V33H79.3088V21.5781H81.5978L87.1838 30.6328H87.2384C87.228 30.3672 87.215 30.0625 87.1994 29.7188C87.1838 29.375 87.1681 29.0208 87.1525 28.6562C87.1421 28.2865 87.1343 27.9297 87.1291 27.5859V21.5781H88.84V33ZM96.4409 33H94.5581V23.1719H91.2144V21.5781H99.7769V23.1719H96.4409V33Z" fill="white"/>
</g>
<defs>
<filter id="filter0_i_3393_31101" x="0" y="0" width="160" height="80" filterUnits="userSpaceOnUse" color-interpolation-filters="sRGB">
<feFlood flood-opacity="0" result="BackgroundImageFix"/>
<feBlend mode="normal" in="SourceGraphic" in2="BackgroundImageFix" result="shape"/>
<feColorMatrix in="SourceAlpha" type="matrix" values="0 0 0 0 0 0 0 0 0 0 0 0 0 0 0 0 0 0 127 0" result="hardAlpha"/>
<feOffset/>
<feGaussianBlur stdDeviation="6"/>
<feComposite in2="hardAlpha" operator="arithmetic" k2="-1" k3="1"/>
<feColorMatrix type="matrix" values="0 0 0 0 0 0 0 0 0 0 0 0 0 0 0 0 0 0 0.05 0"/>
<feBlend mode="normal" in2="shape" result="effect1_innerShadow_3393_31101"/>
</filter>
<linearGradient id="paint0_linear_3393_31101" x1="80" y1="0" x2="80" y2="80" gradientUnits="userSpaceOnUse">
<stop offset="0.046875" stop-color="#9D9EA1"/>
<stop offset="0.609375" stop-color="#7213EA"/>
</linearGradient>
</defs>
</svg>
