<svg width="40" height="40" viewBox="0 0 40 40" fill="none" xmlns="http://www.w3.org/2000/svg">
<g clip-path="url(#clip0_8453_20449)">
<path fill-rule="evenodd" clip-rule="evenodd" d="M8.33379 14.9987C8.33379 11.9045 9.56295 8.93704 11.7509 6.74912C13.9388 4.56119 16.9063 3.33203 20.0005 3.33203C23.0946 3.33203 26.0621 4.56119 28.25 6.74912C30.438 8.93704 31.6671 11.9045 31.6671 14.9987V21.272L34.7038 27.3454C34.8436 27.6249 34.9096 27.9355 34.8955 28.2477C34.8815 28.56 34.7879 28.8634 34.6235 29.1293C34.4592 29.3951 34.2297 29.6146 33.9567 29.7667C33.6837 29.9189 33.3763 29.9987 33.0638 29.9987H26.4571C26.0864 31.4291 25.2512 32.6959 24.0826 33.6002C22.9139 34.5046 21.4781 34.9953 20.0005 34.9953C18.5228 34.9953 17.087 34.5046 15.9184 33.6002C14.7497 32.6959 13.9145 31.4291 13.5438 29.9987H6.93712C6.62458 29.9987 6.31722 29.9189 6.04423 29.7667C5.77124 29.6146 5.54168 29.3951 5.37736 29.1293C5.21304 28.8634 5.11941 28.56 5.10537 28.2477C5.09132 27.9355 5.15733 27.6249 5.29712 27.3454L8.33379 21.272V14.9987ZM17.1138 29.9987C17.4064 30.5054 17.8271 30.9261 18.3339 31.2187C18.8406 31.5112 19.4154 31.6652 20.0005 31.6652C20.5855 31.6652 21.1603 31.5112 21.667 31.2187C22.1738 30.9261 22.5945 30.5054 22.8871 29.9987H17.1138ZM20.0005 6.66536C17.7903 6.66536 15.6707 7.54334 14.1079 9.10614C12.5451 10.6689 11.6671 12.7886 11.6671 14.9987V21.272C11.6671 21.7893 11.5467 22.2994 11.3155 22.762L9.36545 26.6654H30.6371L28.6871 22.762C28.4554 22.2995 28.3344 21.7894 28.3338 21.272V14.9987C28.3338 12.7886 27.4558 10.6689 25.893 9.10614C24.3302 7.54334 22.2106 6.66536 20.0005 6.66536Z" fill="#FD349C"/>
</g>
<defs>
<clipPath id="clip0_8453_20449">
<rect width="40" height="40" fill="white"/>
</clipPath>
</defs>
</svg>
