<svg width="68" height="28" viewBox="0 0 68 28" fill="none" xmlns="http://www.w3.org/2000/svg">
<path d="M52.2961 0.824707V13.9064L52.1302 14.0442L51.9644 14.1821L51.8054 14.3268L51.6534 14.4715L51.5083 14.6163L51.3631 14.7679L51.2249 14.9195L51.0867 15.0712V0.824707H36.5535V12.7347H35.351V0.824707H20.8178V12.7554H19.6154V0.824707H5.08215V14.4233L1.37109 26.7537H4.63295L6.27079 21.295H6.74072L9.44971 26.7537H13.3888L10.7627 21.295H16.7198L15.0681 26.7537H18.6271L20.2581 21.3088H21.0459V21.2949H22.1654H22.2552H28.9794L27.4037 26.7399H30.9973L32.5246 21.2949H34.1417L34.1831 26.7399H37.1962L40.6584 21.2949H42.9251L41.7503 26.7399H45.2886L46.4427 21.2949H48.4883L48.4744 21.6051L48.4818 21.9221L48.4956 22.2254L48.5232 22.5287L48.5439 22.6734L48.5646 22.8181L48.5922 22.9629L48.6199 23.1076L48.6544 23.2524L48.6889 23.3902L48.7303 23.5281L48.7718 23.6659L48.8202 23.8038L48.8686 23.9347L48.9239 24.0657L48.9792 24.1897L49.0414 24.3207L49.1036 24.4447L49.1728 24.5619L49.2419 24.686L49.3179 24.8031L49.4009 24.9134L49.4838 25.0306L49.5736 25.134L49.6635 25.2443L49.7533 25.3476L49.857 25.451L49.9606 25.5475L50.0919 25.6578L50.2232 25.7681L50.3615 25.8715L50.5066 25.9679L50.6517 26.0644L50.7968 26.154L50.9489 26.2298L51.1078 26.3125L51.2598 26.3814L51.4188 26.4504L51.5777 26.5124L51.7436 26.5744L51.9095 26.6296L52.0753 26.6779L52.2412 26.7261L52.407 26.7675L52.7387 26.8432L53.0774 26.8984L53.4091 26.9467L53.7408 26.988L54.0656 27.0156L54.3835 27.0294L54.6945 27.0432H54.9916L55.3925 27.0367L55.7933 27.0301L56.201 27.0094L56.6087 26.9888L57.0165 26.9543L57.4242 26.9198L57.8319 26.8784L58.2397 26.8302L58.6543 26.775L59.0689 26.7129L59.4836 26.644L59.8982 26.5751L60.3129 26.4993L60.7275 26.4166L61.1422 26.3339L61.5637 26.2374L62.7938 21.2956H66.8297V0.825345H52.2965L52.2961 0.824707ZM6.42973 20.7849L6.45045 20.7092L6.49886 20.7849H6.42973ZM19.0901 13.4515L18.8828 14.1476L16.9478 20.5575L16.8718 20.7849H10.5139L10.0233 19.7373L16.8718 12.7554H12.4697L7.11387 18.5105L8.84846 12.7554H5.60043V1.34164H19.0901V13.4515H19.0901ZM22.8427 18.8689L22.739 18.8754L22.6422 18.8819L22.5386 18.8885H22.428H22.2829H22.1585L22.041 18.895H21.9304L21.0666 18.8885L21.4674 17.4135L21.654 16.6829L22.1101 14.9667H22.2552H22.4073L22.5524 14.9602H22.6906H23.361L23.7687 14.9667L24.1419 14.9806L24.3077 14.9871L24.4667 15.0009L24.6187 15.0216L24.7569 15.0423L24.8813 15.063L24.9988 15.0975L25.1094 15.132L25.2061 15.1733L25.289 15.2147L25.3651 15.2699L25.4342 15.325L25.4895 15.394L25.524 15.4491L25.5516 15.5043L25.5792 15.5664L25.5999 15.6353L25.6138 15.7111L25.6211 15.7868V15.8696V15.9591L25.6138 16.0556L25.6073 16.1521L25.5865 16.2624L25.5658 16.3727L25.5036 16.607L25.4276 16.8689L25.3515 17.0895L25.2686 17.3032L25.1788 17.503L25.082 17.6891L25.0336 17.7718L24.9852 17.8545L24.9298 17.9373L24.8676 18.013L24.8054 18.0888L24.7432 18.1577L24.674 18.2266L24.6049 18.2887L24.5289 18.3439L24.4528 18.4059L24.3699 18.4541L24.28 18.5093L24.1902 18.5576L24.0935 18.5989L23.9967 18.6403L23.893 18.6748L23.7825 18.7162L23.665 18.7437L23.5406 18.7713L23.4162 18.7988L23.278 18.8195L23.1398 18.8402L22.9947 18.854L22.8426 18.8678L22.8427 18.8689ZM32.6697 20.7849L34.0864 15.7535L34.1417 20.7849H32.6697H32.6697ZM34.8258 12.7347H31.4534L29.1314 20.7849H25.5517L25.7175 20.716L25.8834 20.6471L26.0423 20.5782L26.2013 20.5024L26.3533 20.4266L26.4984 20.337L26.6436 20.2543L26.7818 20.1647L26.92 20.0682L27.0513 19.9717L27.1757 19.8752L27.3001 19.765L27.4175 19.6616L27.5281 19.5444L27.6387 19.4341L27.7424 19.3101L27.846 19.1929L27.9428 19.0619L28.0326 18.9379L28.1224 18.8L28.2054 18.6622L28.2814 18.5243L28.3574 18.3796L28.4266 18.228L28.4957 18.0763L28.5579 17.9247L28.6132 17.7662L28.6685 17.6008L28.7099 17.4354L28.7584 17.2699L28.7929 17.0907L28.8274 16.9184L28.8758 16.6427L28.9173 16.3808L28.9449 16.1327L28.9656 15.8984L28.9729 15.664L28.9656 15.4504L28.9591 15.2367L28.9315 15.0368L28.9038 14.8507L28.8554 14.6646L28.807 14.4923L28.7379 14.3269L28.6618 14.1684L28.5789 14.0099L28.4822 13.8651L28.3716 13.7273L28.2818 13.6308L28.1919 13.5343L28.0952 13.4516L27.9915 13.3758L27.8809 13.3L27.7704 13.2311L27.6529 13.1691L27.5354 13.1139L27.411 13.0587L27.2866 13.0173L27.1553 12.976L27.024 12.9346L26.8858 12.9001L26.7476 12.8726L26.6094 12.845L26.4642 12.8243L26.1671 12.783L25.8699 12.7623L25.5658 12.7416L25.2549 12.735H24.6329H24.0179H23.8244H23.4788H23.0503H22.5735H22.1105H21.7166H21.4402H21.3365V1.34201H34.8262V12.735L34.8258 12.7347ZM43.0219 20.7849H40.9971L44.0654 15.9603L43.0219 20.7849ZM50.5615 12.9621L50.5542 15.7535L50.3814 15.9948L50.2225 16.2429L50.0635 16.491L49.9184 16.7391L49.7802 16.9873L49.642 17.2423L49.5245 17.4904L49.407 17.7385L49.2964 17.9798L49.1997 18.2279L49.1029 18.4691L49.02 18.7035L48.944 18.9378L48.8748 19.1652L48.8126 19.3858L48.7573 19.6063L48.7228 19.7511L48.6882 19.9027L48.6537 20.0475L48.6261 20.1991L48.5985 20.3438L48.5778 20.4886L48.557 20.6333L48.5432 20.7849H46.5599L48.253 12.7554L42.5447 12.7488L37.4377 20.7853H37.0645V1.34199H50.5612V12.9625L50.5615 12.9621ZM58.343 24.0726L58.0596 24.1208L57.7694 24.1622L57.4791 24.2035L57.1958 24.238L56.9124 24.2656L56.6291 24.2863L56.3527 24.3001H56.0762H55.8966L55.7169 24.2936L55.5441 24.2797L55.3714 24.2591L55.2055 24.2315L55.0466 24.204L54.8876 24.1695L54.7356 24.1281L54.5904 24.0799L54.4453 24.0316L54.3071 23.9696L54.1758 23.9075L54.0445 23.8318L53.9201 23.756L53.8026 23.6733L53.6921 23.5905L53.5815 23.4941L53.4847 23.3907L53.388 23.2873L53.2981 23.1701L53.2152 23.053L53.1392 22.922L53.07 22.791L53.0009 22.6532L52.9456 22.5085L52.8972 22.3499L52.8557 22.1914L52.8143 22.026L52.7867 21.8537L52.766 21.6745L52.7522 21.4884L52.7448 21.2954H59.0336L58.3425 24.073L58.343 24.0726ZM66.3179 20.7849H62.9179L63.4776 18.538H56.6637L56.1039 20.7849H52.8075V20.3231L52.8489 20.1302L52.8834 19.9372L52.9249 19.7304L52.9663 19.5236L53.0285 19.2962L53.0908 19.0687L53.1599 18.8413L53.2359 18.6207L53.3189 18.4002L53.4087 18.1796L53.5054 17.966L53.6022 17.7523L53.7128 17.5386L53.8233 17.3388L53.9408 17.132L54.0721 16.939L54.2034 16.746L54.3347 16.5599L54.4799 16.3807L54.6319 16.2084L54.7908 16.043L54.9498 15.8914L55.1226 15.7397L55.2953 15.595L55.475 15.464L55.6685 15.34L55.862 15.2297L56.0624 15.1263L56.2697 15.0298L56.484 14.9471L56.7051 14.8782L56.9332 14.823L57.1681 14.7748L57.41 14.7403L57.6588 14.7196L57.9145 14.7131L58.1149 14.7196L58.3153 14.7334L58.5157 14.761L58.7092 14.8023L58.806 14.8299L58.8958 14.8574L58.9856 14.885L59.0686 14.9264L59.1515 14.9609L59.2344 15.0091L59.3105 15.0573L59.3865 15.1056L59.4556 15.1676L59.5248 15.2296L59.587 15.2917L59.6492 15.3675L59.7045 15.4364L59.753 15.5191L59.7944 15.6087L59.8358 15.6983L59.8704 15.7948L59.898 15.8982L59.9187 16.0016L59.9394 16.1187L59.9467 16.2359V16.36V16.4909L59.9329 16.6288H63.9964L64.0586 16.3462L64.114 16.0222L64.1416 15.8499L64.1554 15.6638L64.1692 15.4777V15.2848L64.1627 15.0849L64.142 14.8781L64.1213 14.7816L64.1075 14.6782L64.0798 14.5748L64.0522 14.4715L64.0177 14.3612L63.9832 14.2578L63.9417 14.1544L63.8933 14.051L63.8449 13.9476L63.7827 13.8443L63.7204 13.7409L63.6513 13.6375L63.5684 13.5272L63.4785 13.4238L63.3887 13.3204L63.2919 13.2239L63.1883 13.1275L63.0777 13.0379L62.9671 12.9551L62.8497 12.8724L62.7253 12.7897L62.6009 12.7208L62.4696 12.6519L62.3314 12.583L62.1931 12.5209L62.048 12.4589L61.896 12.4037L61.7439 12.3485L61.5919 12.3003L61.4261 12.2589L61.2671 12.2176L61.0943 12.1762L60.9216 12.1417L60.7488 12.1072L60.5691 12.0797L60.3825 12.059L60.0025 12.0176L59.6155 11.9831L59.2077 11.9693L58.7931 11.9628L58.4821 11.9693L58.1573 11.9758L57.8187 11.9965L57.4662 12.0241L57.1 12.0654L56.7268 12.1137L56.3467 12.1757L55.9597 12.2584L55.7662 12.2998L55.5658 12.348L55.3723 12.4032L55.1719 12.4584L54.9715 12.5204L54.771 12.5893L54.5706 12.6583L54.3771 12.734L54.1767 12.8167L53.9763 12.9063L53.7828 12.9959L53.5824 13.0924L53.3889 13.1958L53.1954 13.3061L53.0019 13.4164L52.8084 13.5404V1.34099H66.3188V20.7843L66.3179 20.7849Z" fill="#7213EA"/>
</svg>
