<svg width="18" height="18" viewBox="0 0 18 18" fill="none" xmlns="http://www.w3.org/2000/svg">
<g id="ph:upload-bold">
<path id="Vector" d="M13.2188 12.9382C12.9962 12.9382 12.7787 12.8722 12.5937 12.7486C12.4087 12.625 12.2645 12.4493 12.1794 12.2437C12.0942 12.0381 12.072 11.8119 12.1154 11.5937C12.1588 11.3755 12.2659 11.175 12.4233 11.0177C12.5806 10.8603 12.781 10.7532 12.9993 10.7098C13.2175 10.6664 13.4437 10.6887 13.6493 10.7738C13.8548 10.8589 14.0305 11.0031 14.1542 11.1881C14.2778 11.3732 14.3438 11.5907 14.3438 11.8132C14.3438 12.1115 14.2252 12.3977 14.0142 12.6087C13.8033 12.8196 13.5171 12.9382 13.2188 12.9382ZM15.75 8.15692H12.6562C12.4325 8.15692 12.2179 8.24581 12.0596 8.40404C11.9014 8.56228 11.8125 8.77689 11.8125 9.00067C11.8125 9.22444 11.9014 9.43905 12.0596 9.59729C12.2179 9.75552 12.4325 9.84442 12.6562 9.84442H15.4688V13.7819H2.53125V9.84442H5.34375C5.56753 9.84442 5.78214 9.75552 5.94037 9.59729C6.09861 9.43905 6.1875 9.22444 6.1875 9.00067C6.1875 8.77689 6.09861 8.56228 5.94037 8.40404C5.78214 8.24581 5.56753 8.15692 5.34375 8.15692H2.25C1.87704 8.15692 1.51935 8.30507 1.25563 8.5688C0.991908 8.83252 0.84375 9.1902 0.84375 9.56317V14.0632C0.84375 14.4361 0.991908 14.7938 1.25563 15.0575C1.51935 15.3213 1.87704 15.4694 2.25 15.4694H15.75C16.123 15.4694 16.4806 15.3213 16.7444 15.0575C17.0081 14.7938 17.1562 14.4361 17.1562 14.0632V9.56317C17.1562 9.1902 17.0081 8.83252 16.7444 8.5688C16.4806 8.30507 16.123 8.15692 15.75 8.15692ZM6.22195 5.66012L8.15625 3.72723V9.00067C8.15625 9.22444 8.24514 9.43905 8.40338 9.59729C8.56161 9.75552 8.77622 9.84442 9 9.84442C9.22378 9.84442 9.43839 9.75552 9.59662 9.59729C9.75486 9.43905 9.84375 9.22444 9.84375 9.00067V3.72723L11.778 5.66223C11.8565 5.74071 11.9497 5.80297 12.0523 5.84545C12.1548 5.88792 12.2647 5.90979 12.3757 5.90979C12.4867 5.90979 12.5966 5.88792 12.6992 5.84545C12.8017 5.80297 12.8949 5.74071 12.9734 5.66223C13.0518 5.58374 13.1141 5.49057 13.1566 5.38802C13.1991 5.28547 13.2209 5.17557 13.2209 5.06457C13.2209 4.95358 13.1991 4.84367 13.1566 4.74112C13.1141 4.63858 13.0518 4.5454 12.9734 4.46692L9.59836 1.09192C9.51997 1.01326 9.42683 0.950843 9.32427 0.908257C9.22171 0.865671 9.11175 0.84375 9.0007 0.84375C8.88965 0.84375 8.7797 0.865671 8.67714 0.908257C8.57458 0.950843 8.48143 1.01326 8.40305 1.09192L5.02805 4.46692C4.94956 4.5454 4.8873 4.63858 4.84483 4.74112C4.80235 4.84367 4.78049 4.95358 4.78049 5.06457C4.78049 5.28874 4.86954 5.50372 5.02805 5.66223C5.18656 5.82074 5.40154 5.90979 5.6257 5.90979C5.84987 5.90979 6.06485 5.82074 6.22336 5.66223L6.22195 5.66012Z" fill="white"/>
</g>
</svg>
