<svg width="35" height="32" viewBox="0 0 35 32" fill="none" xmlns="http://www.w3.org/2000/svg">
<path d="M18.3333 25C18.3333 25.5667 18.4 26.1167 18.4833 26.6667H3.33333C2.44928 26.6667 1.60143 26.3155 0.976311 25.6904C0.351189 25.0652 0 24.2174 0 23.3333V3.33333C0 1.48333 1.48333 0 3.33333 0H13.3333L16.6667 3.33333H30C30.8841 3.33333 31.7319 3.68452 32.357 4.30964C32.9821 4.93476 33.3333 5.78261 33.3333 6.66667V16.35C31.8667 15.5 30.1667 15 28.3333 15C22.8167 15 18.3333 19.4833 18.3333 25ZM30 23.3333V18.3333H26.6667V23.3333H21.6667V26.6667H26.6667V31.6667H30V26.6667H35V23.3333H30Z" fill="#824CA7"/>
</svg>
