<svg width="40" height="40" viewBox="0 0 40 40" fill="none" xmlns="http://www.w3.org/2000/svg">
<path d="M19.9998 17.7569C22.9208 17.7569 25.2887 15.4189 25.2887 12.5347C25.2887 9.65057 22.9208 7.3125 19.9998 7.3125C17.0789 7.3125 14.7109 9.65057 14.7109 12.5347C14.7109 15.4189 17.0789 17.7569 19.9998 17.7569Z" fill="#FF9800"/>
<path d="M11.9782 13.0575H12.5116V12.5797C12.5148 11.1903 12.9068 9.82964 13.6431 8.65148C14.3795 7.47333 15.4308 6.52474 16.6782 5.91302C16.3089 5.06253 15.7162 4.32794 14.9629 3.78728C14.2097 3.24661 13.3241 2.92006 12.4001 2.8423C11.4762 2.76455 10.5484 2.93849 9.71542 3.34565C8.8824 3.75281 8.17521 4.378 7.66897 5.1548C7.16272 5.9316 6.87632 6.83102 6.84019 7.75752C6.80406 8.68402 7.01954 9.603 7.46376 10.4169C7.90797 11.2307 8.56432 11.9091 9.3631 12.3799C10.1619 12.8507 11.0733 13.0964 12.0005 13.0908L11.9782 13.0575ZM27.5116 12.5352V13.013H28.0449C28.9597 13.0038 29.8552 12.7482 30.637 12.273C31.4188 11.7978 32.058 11.1207 32.4874 10.3128C32.9168 9.50494 33.1205 8.59626 33.077 7.68241C33.0335 6.76856 32.7444 5.88334 32.2402 5.11992C31.736 4.3565 31.0354 3.74312 30.212 3.34435C29.3885 2.94557 28.4729 2.77615 27.5613 2.85391C26.6497 2.93167 25.776 3.25374 25.032 3.78622C24.288 4.3187 23.7014 5.0419 23.3338 5.87968C24.5816 6.48901 25.6341 7.4352 26.3724 8.61132C27.1106 9.78745 27.5052 11.1466 27.5116 12.5352ZM24.7671 18.2797C26.9763 18.717 29.1124 19.4651 31.1116 20.5019C31.3932 20.6566 31.6483 20.8554 31.8671 21.0908H37.7782V17.2908C37.7793 17.145 37.7406 17.0018 37.6661 16.8764C37.5917 16.7511 37.4845 16.6485 37.356 16.5797C34.4762 15.0734 31.2726 14.2916 28.0227 14.3019H27.2893C26.9043 15.8671 26.0187 17.2638 24.7671 18.2797ZM7.25601 23.2464C7.25398 22.6868 7.40511 22.1373 7.69301 21.6574C7.98092 21.1776 8.39464 20.7857 8.88935 20.5241C10.8885 19.4874 13.0246 18.7392 15.2338 18.3019C13.9883 17.2947 13.1033 15.9106 12.7116 14.3575H11.9782C8.72826 14.3471 5.52473 15.1289 2.6449 16.6352C2.51642 16.7041 2.40918 16.8067 2.33477 16.932C2.26036 17.0573 2.2216 17.2006 2.22268 17.3464V24.4464H7.25601V23.2464ZM23.8449 29.6575H30.4671V31.213H23.8449V29.6575Z" fill="#FF9800"/>
<path d="M36.4563 23.6224H28.823V22.5113C28.823 22.2166 28.7059 21.934 28.4975 21.7256C28.2892 21.5172 28.0066 21.4002 27.7119 21.4002C27.4172 21.4002 27.1346 21.5172 26.9262 21.7256C26.7178 21.934 26.6008 22.2166 26.6008 22.5113V23.6224H24.4452V20.478C22.9833 20.171 21.4945 20.0109 20.0008 20.0002C16.4938 19.9856 13.037 20.8326 9.93409 22.4669C9.79588 22.5386 9.68019 22.6471 9.5998 22.7804C9.5194 22.9137 9.47743 23.0667 9.47854 23.2224V29.4557H17.3785V36.2224C17.3785 36.5171 17.4956 36.7997 17.704 37.0081C17.9123 37.2165 18.195 37.3335 18.4896 37.3335H36.4563C36.751 37.3335 37.0336 37.2165 37.242 37.0081C37.4504 36.7997 37.5674 36.5171 37.5674 36.2224V24.7335C37.5674 24.4388 37.4504 24.1562 37.242 23.9478C37.0336 23.7395 36.751 23.6224 36.4563 23.6224ZM35.3452 35.1335H19.6008V25.8446H26.6008V26.8557C26.6008 27.1504 26.7178 27.433 26.9262 27.6414C27.1346 27.8498 27.4172 27.9669 27.7119 27.9669C28.0066 27.9669 28.2892 27.8498 28.4975 27.6414C28.7059 27.433 28.823 27.1504 28.823 26.8557V25.8446H35.3452V35.1335Z" fill="#FF9800"/>
</svg>
