<svg width="40" height="40" viewBox="0 0 40 40" fill="none" xmlns="http://www.w3.org/2000/svg">
<path d="M29.9993 6.66536V33.332H9.99935V14.6654L17.9993 6.66536H29.9993ZM29.9993 3.33203H16.666L6.66602 13.332V33.332C6.66602 35.1654 8.16602 36.6654 9.99935 36.6654H29.9993C31.8327 36.6654 33.3327 35.1654 33.3327 33.332V6.66536C33.3327 4.83203 31.8327 3.33203 29.9993 3.33203ZM15.8327 31.6654H12.4993V28.332H15.8327V31.6654ZM27.4993 31.6654H24.166V28.332H27.4993V31.6654ZM15.8327 24.9987H12.4993V18.332H15.8327V24.9987ZM21.666 31.6654H18.3327V24.9987H21.666V31.6654ZM21.666 21.6654H18.3327V18.332H21.666V21.6654ZM27.4993 24.9987H24.166V18.332H27.4993V24.9987Z" fill="#0878A4"/>
</svg>
