<svg width="161" height="28" viewBox="0 0 161 28" fill="none" xmlns="http://www.w3.org/2000/svg">
<path d="M51.7961 0.824463V13.9061L51.6302 14.044L51.4644 14.1818L51.3054 14.3266L51.1534 14.4713L51.0083 14.616L50.8631 14.7677L50.7249 14.9193L50.5867 15.0709V0.824463H36.0535V12.7344H34.851V0.824463H20.3178V12.7551H19.1154V0.824463H4.58215V14.4231L0.871094 26.7535H4.13295L5.77079 21.2947H6.24072L8.94971 26.7535H12.8888L10.2627 21.2947H16.2198L14.5681 26.7535H18.1271L19.7581 21.3085H20.5459V21.2947H21.6654H21.7552H28.4794L26.9037 26.7397H30.4973L32.0246 21.2947H33.6417L33.6831 26.7397H36.6962L40.1584 21.2947H42.4251L41.2503 26.7397H44.7886L45.9427 21.2947H47.9883L47.9744 21.6048L47.9818 21.9219L47.9956 22.2252L48.0232 22.5284L48.0439 22.6732L48.0646 22.8179L48.0922 22.9626L48.1199 23.1074L48.1544 23.2521L48.1889 23.39L48.2303 23.5278L48.2718 23.6657L48.3202 23.8035L48.3686 23.9345L48.4239 24.0654L48.4792 24.1895L48.5414 24.3204L48.6036 24.4445L48.6728 24.5617L48.7419 24.6857L48.8179 24.8029L48.9009 24.9132L48.9838 25.0303L49.0736 25.1337L49.1635 25.244L49.2533 25.3474L49.357 25.4508L49.4606 25.5473L49.5919 25.6575L49.7232 25.7678L49.8615 25.8712L50.0066 25.9677L50.1517 26.0642L50.2968 26.1538L50.4489 26.2296L50.6078 26.3123L50.7598 26.3812L50.9188 26.4501L51.0777 26.5122L51.2436 26.5742L51.4095 26.6294L51.5753 26.6776L51.7412 26.7259L51.907 26.7672L52.2387 26.843L52.5774 26.8982L52.9091 26.9464L53.2408 26.9878L53.5656 27.0153L53.8835 27.0291L54.1945 27.043H54.4916L54.8925 27.0364L55.2933 27.0299L55.701 27.0092L56.1087 26.9885L56.5165 26.954L56.9242 26.9195L57.3319 26.8781L57.7397 26.8299L58.1543 26.7747L58.5689 26.7127L58.9836 26.6438L59.3982 26.5749L59.8129 26.4991L60.2275 26.4164L60.6422 26.3337L61.0637 26.2372L62.2938 21.2954H66.3297V0.825101H51.7965L51.7961 0.824463ZM5.92973 20.7847L5.95045 20.7089L5.99886 20.7847H5.92973ZM18.5901 13.4512L18.3828 14.1474L16.4478 20.5572L16.3718 20.7847H10.0139L9.52328 19.7371L16.3718 12.7551H11.9697L6.61387 18.5102L8.34846 12.7551H5.10043V1.34139H18.5901V13.4512H18.5901ZM22.3427 18.8686L22.239 18.8752L22.1422 18.8817L22.0386 18.8882H21.928H21.7829H21.6585L21.541 18.8948H21.4304L20.5666 18.8882L20.9674 17.4133L21.154 16.6827L21.6101 14.9665H21.7552H21.9073L22.0524 14.96H22.1906H22.861L23.2687 14.9665L23.6419 14.9803L23.8077 14.9869L23.9667 15.0007L24.1187 15.0214L24.2569 15.042L24.3813 15.0627L24.4988 15.0972L24.6094 15.1317L24.7061 15.1731L24.789 15.2144L24.8651 15.2696L24.9342 15.3248L24.9895 15.3937L25.024 15.4489L25.0516 15.5041L25.0792 15.5661L25.0999 15.635L25.1138 15.7108L25.1211 15.7866V15.8693V15.9589L25.1138 16.0554L25.1073 16.1519L25.0865 16.2622L25.0658 16.3724L25.0036 16.6068L24.9276 16.8687L24.8515 17.0893L24.7686 17.3029L24.6788 17.5028L24.582 17.6889L24.5336 17.7716L24.4852 17.8543L24.4298 17.937L24.3676 18.0128L24.3054 18.0886L24.2432 18.1575L24.174 18.2264L24.1049 18.2884L24.0289 18.3436L23.9528 18.4057L23.8699 18.4539L23.78 18.5091L23.6902 18.5573L23.5935 18.5987L23.4967 18.64L23.393 18.6745L23.2825 18.7159L23.165 18.7435L23.0406 18.771L22.9162 18.7986L22.778 18.8192L22.6398 18.8399L22.4947 18.8537L22.3426 18.8676L22.3427 18.8686ZM32.1697 20.7847L33.5864 15.7533L33.6417 20.7847H32.1697H32.1697ZM34.3258 12.7344H30.9534L28.6314 20.7847H25.0517L25.2175 20.7158L25.3834 20.6469L25.5423 20.578L25.7013 20.5022L25.8533 20.4264L25.9984 20.3368L26.1436 20.2541L26.2818 20.1645L26.42 20.068L26.5513 19.9715L26.6757 19.875L26.8001 19.7647L26.9175 19.6613L27.0281 19.5442L27.1387 19.4339L27.2424 19.3098L27.346 19.1927L27.4428 19.0617L27.5326 18.9376L27.6224 18.7998L27.7054 18.6619L27.7814 18.5241L27.8574 18.3794L27.9266 18.2277L27.9957 18.0761L28.0579 17.9245L28.1132 17.7659L28.1685 17.6005L28.2099 17.4351L28.2584 17.2697L28.2929 17.0905L28.3274 16.9182L28.3758 16.6425L28.4173 16.3806L28.4449 16.1325L28.4656 15.8981L28.4729 15.6638L28.4656 15.4501L28.4591 15.2364L28.4315 15.0366L28.4038 14.8505L28.3554 14.6644L28.307 14.4921L28.2379 14.3267L28.1618 14.1681L28.0789 14.0096L27.9822 13.8649L27.8716 13.727L27.7818 13.6305L27.6919 13.534L27.5952 13.4513L27.4915 13.3756L27.3809 13.2998L27.2704 13.2309L27.1529 13.1688L27.0354 13.1136L26.911 13.0584L26.7866 13.0171L26.6553 12.9757L26.524 12.9344L26.3858 12.8999L26.2476 12.8723L26.1094 12.8448L25.9642 12.8241L25.6671 12.7827L25.3699 12.762L25.0658 12.7413L24.7549 12.7348H24.1329H23.5179H23.3244H22.9788H22.5503H22.0735H21.6105H21.2166H20.9402H20.8365V1.34176H34.3262V12.7348L34.3258 12.7344ZM42.5219 20.7847H40.4971L43.5654 15.96L42.5219 20.7847ZM50.0615 12.9619L50.0542 15.7533L49.8814 15.9945L49.7225 16.2426L49.5635 16.4908L49.4184 16.7389L49.2802 16.987L49.142 17.242L49.0245 17.4902L48.907 17.7383L48.7964 17.9795L48.6997 18.2276L48.6029 18.4689L48.52 18.7032L48.444 18.9375L48.3748 19.165L48.3126 19.3855L48.2573 19.6061L48.2228 19.7508L48.1882 19.9025L48.1537 20.0472L48.1261 20.1988L48.0985 20.3436L48.0778 20.4883L48.057 20.6331L48.0432 20.7847H46.0599L47.753 12.7551L42.0447 12.7486L36.9377 20.785H36.5645V1.34175H50.0612V12.9622L50.0615 12.9619ZM57.843 24.0723L57.5596 24.1206L57.2694 24.1619L56.9791 24.2033L56.6958 24.2378L56.4124 24.2653L56.1291 24.286L55.8527 24.2998H55.5762H55.3966L55.2169 24.2933L55.0441 24.2795L54.8714 24.2588L54.7055 24.2313L54.5466 24.2037L54.3876 24.1692L54.2356 24.1278L54.0904 24.0796L53.9453 24.0314L53.8071 23.9693L53.6758 23.9073L53.5445 23.8315L53.4201 23.7557L53.3026 23.673L53.1921 23.5903L53.0815 23.4938L52.9847 23.3904L52.888 23.287L52.7981 23.1699L52.7152 23.0527L52.6392 22.9217L52.57 22.7908L52.5009 22.653L52.4456 22.5082L52.3972 22.3497L52.3557 22.1912L52.3143 22.0258L52.2867 21.8534L52.266 21.6742L52.2522 21.4881L52.2448 21.2952H58.5336L57.8425 24.0728L57.843 24.0723ZM65.8179 20.7847H62.4179L62.9776 18.5378H56.1637L55.6039 20.7847H52.3075V20.3229L52.3489 20.1299L52.3834 19.9369L52.4249 19.7302L52.4663 19.5234L52.5285 19.2959L52.5908 19.0685L52.6599 18.8411L52.7359 18.6205L52.8189 18.3999L52.9087 18.1794L53.0054 17.9657L53.1022 17.7521L53.2128 17.5384L53.3233 17.3385L53.4408 17.1317L53.5721 16.9388L53.7034 16.7458L53.8347 16.5597L53.9799 16.3805L54.1319 16.2082L54.2908 16.0428L54.4498 15.8911L54.6226 15.7395L54.7953 15.5948L54.975 15.4638L55.1685 15.3397L55.362 15.2295L55.5624 15.1261L55.7697 15.0296L55.984 14.9469L56.2051 14.878L56.4332 14.8228L56.6681 14.7746L56.91 14.7401L57.1588 14.7194L57.4145 14.7128L57.6149 14.7194L57.8153 14.7332L58.0157 14.7607L58.2092 14.8021L58.306 14.8297L58.3958 14.8572L58.4856 14.8848L58.5686 14.9261L58.6515 14.9606L58.7344 15.0088L58.8105 15.0571L58.8865 15.1053L58.9556 15.1674L59.0248 15.2294L59.087 15.2914L59.1492 15.3672L59.2045 15.4361L59.253 15.5189L59.2944 15.6084L59.3358 15.6981L59.3704 15.7945L59.398 15.8979L59.4187 16.0013L59.4394 16.1185L59.4467 16.2357V16.3597V16.4907L59.4329 16.6285H63.4964L63.5586 16.3459L63.614 16.022L63.6416 15.8497L63.6554 15.6636L63.6692 15.4775V15.2845L63.6627 15.0846L63.642 14.8779L63.6213 14.7814L63.6075 14.678L63.5798 14.5746L63.5522 14.4712L63.5177 14.3609L63.4832 14.2576L63.4417 14.1542L63.3933 14.0508L63.3449 13.9474L63.2827 13.844L63.2204 13.7406L63.1513 13.6372L63.0684 13.527L62.9785 13.4236L62.8887 13.3202L62.7919 13.2237L62.6883 13.1272L62.5777 13.0376L62.4671 12.9549L62.3497 12.8722L62.2253 12.7895L62.1009 12.7206L61.9696 12.6517L61.8314 12.5827L61.6931 12.5207L61.548 12.4586L61.396 12.4035L61.2439 12.3483L61.0919 12.3001L60.9261 12.2587L60.7671 12.2173L60.5943 12.176L60.4216 12.1415L60.2488 12.107L60.0691 12.0794L59.8825 12.0587L59.5025 12.0174L59.1155 11.9829L58.7077 11.9691L58.2931 11.9625L57.9821 11.9691L57.6573 11.9756L57.3187 11.9963L56.9662 12.0238L56.6 12.0652L56.2268 12.1134L55.8467 12.1755L55.4597 12.2582L55.2662 12.2995L55.0658 12.3478L54.8723 12.403L54.6719 12.4581L54.4715 12.5202L54.271 12.5891L54.0706 12.658L53.8771 12.7338L53.6767 12.8165L53.4763 12.9061L53.2828 12.9957L53.0824 13.0922L52.8889 13.1956L52.6954 13.3059L52.5019 13.4161L52.3084 13.5402V1.34075H65.8188V20.784L65.8179 20.7847Z" fill="#2545E3"/>
<path d="M85.7734 22H83.0488V11.418H79.5596V9.15039H89.2627V11.418H85.7734V22ZM94.6947 11.9717C96.013 11.9717 97.0238 12.2588 97.7269 12.833C98.43 13.4072 98.7816 14.2803 98.7816 15.4521V22H96.9095L96.391 20.6641H96.3207C96.0394 21.0156 95.7523 21.3027 95.4593 21.5254C95.1664 21.748 94.8295 21.9121 94.4486 22.0176C94.0677 22.123 93.6048 22.1758 93.0599 22.1758C92.4798 22.1758 91.9584 22.0645 91.4955 21.8418C91.0384 21.6191 90.6781 21.2793 90.4144 20.8223C90.1507 20.3594 90.0189 19.7734 90.0189 19.0645C90.0189 18.0215 90.3851 17.2539 91.1175 16.7617C91.85 16.2637 92.9486 15.9883 94.4134 15.9355L96.1185 15.8828V15.4521C96.1185 14.9365 95.9838 14.5586 95.7142 14.3184C95.4447 14.0781 95.0697 13.958 94.5892 13.958C94.1146 13.958 93.6488 14.0254 93.1918 14.1602C92.7347 14.2949 92.2777 14.4648 91.8207 14.6699L90.933 12.8594C91.4545 12.584 92.0375 12.3672 92.682 12.209C93.3324 12.0508 94.0033 11.9717 94.6947 11.9717ZM96.1185 17.4473L95.0814 17.4824C94.2142 17.5059 93.6107 17.6611 93.2709 17.9482C92.9369 18.2354 92.7699 18.6133 92.7699 19.082C92.7699 19.4922 92.89 19.7852 93.1302 19.9609C93.3705 20.1309 93.6839 20.2158 94.0707 20.2158C94.6449 20.2158 95.1283 20.0459 95.5209 19.7061C95.9193 19.3662 96.1185 18.8828 96.1185 18.2559V17.4473ZM103.203 16.9814L100.039 12.1738H103.08L104.987 15.3027L106.912 12.1738H109.953L106.754 16.9814L110.102 22H107.052L104.987 18.6338L102.913 22H99.8718L103.203 16.9814ZM127.426 15.5576C127.426 16.5479 127.303 17.4502 127.057 18.2646C126.811 19.0732 126.436 19.7705 125.932 20.3564C125.434 20.9424 124.801 21.3936 124.034 21.71C123.266 22.0205 122.358 22.1758 121.309 22.1758C120.26 22.1758 119.352 22.0205 118.584 21.71C117.817 21.3936 117.181 20.9424 116.677 20.3564C116.179 19.7705 115.807 19.0703 115.561 18.2559C115.315 17.4414 115.192 16.5361 115.192 15.54C115.192 14.21 115.409 13.0527 115.842 12.0684C116.282 11.0781 116.956 10.3105 117.864 9.76562C118.772 9.2207 119.926 8.94824 121.327 8.94824C122.721 8.94824 123.867 9.2207 124.763 9.76562C125.665 10.3105 126.333 11.0781 126.767 12.0684C127.206 13.0586 127.426 14.2217 127.426 15.5576ZM118.048 15.5576C118.048 16.4541 118.16 17.2275 118.382 17.8779C118.611 18.5225 118.965 19.0205 119.446 19.3721C119.926 19.7178 120.547 19.8906 121.309 19.8906C122.082 19.8906 122.709 19.7178 123.19 19.3721C123.67 19.0205 124.019 18.5225 124.236 17.8779C124.458 17.2275 124.57 16.4541 124.57 15.5576C124.57 14.21 124.318 13.1494 123.814 12.376C123.31 11.6025 122.481 11.2158 121.327 11.2158C120.559 11.2158 119.932 11.3916 119.446 11.7432C118.965 12.0889 118.611 12.5869 118.382 13.2373C118.16 13.8818 118.048 14.6553 118.048 15.5576ZM135.003 11.9893C135.138 11.9893 135.293 11.998 135.469 12.0156C135.65 12.0273 135.797 12.0449 135.908 12.0684L135.706 14.582C135.618 14.5527 135.492 14.5322 135.328 14.5205C135.17 14.5029 135.032 14.4941 134.915 14.4941C134.569 14.4941 134.232 14.5381 133.904 14.626C133.582 14.7139 133.292 14.8574 133.034 15.0566C132.776 15.25 132.571 15.5078 132.419 15.8301C132.272 16.1465 132.199 16.5361 132.199 16.999V22H129.518V12.1738H131.549L131.944 13.8262H132.076C132.269 13.4922 132.51 13.1875 132.797 12.9121C133.09 12.6309 133.421 12.4082 133.79 12.2441C134.165 12.0742 134.569 11.9893 135.003 11.9893ZM140.013 8.32422V11.5059C140.013 11.875 140.001 12.2412 139.978 12.6045C139.96 12.9678 139.937 13.249 139.907 13.4482H140.013C140.271 13.0439 140.622 12.7012 141.068 12.4199C141.513 12.1328 142.09 11.9893 142.799 11.9893C143.901 11.9893 144.794 12.4199 145.48 13.2812C146.165 14.1426 146.508 15.4053 146.508 17.0693C146.508 18.1885 146.35 19.1289 146.033 19.8906C145.717 20.6465 145.275 21.2178 144.706 21.6045C144.138 21.9854 143.479 22.1758 142.729 22.1758C142.008 22.1758 141.44 22.0469 141.024 21.7891C140.608 21.5312 140.271 21.2412 140.013 20.9189H139.828L139.38 22H137.332V8.32422H140.013ZM141.938 14.1338C141.469 14.1338 141.097 14.2305 140.821 14.4238C140.546 14.6172 140.344 14.9072 140.215 15.2939C140.092 15.6807 140.025 16.1699 140.013 16.7617V17.0518C140.013 18.0068 140.153 18.7393 140.435 19.249C140.716 19.7529 141.229 20.0049 141.973 20.0049C142.524 20.0049 142.96 19.75 143.282 19.2402C143.611 18.7305 143.775 17.9951 143.775 17.0342C143.775 16.0732 143.611 15.3496 143.282 14.8633C142.954 14.377 142.506 14.1338 141.938 14.1338ZM151.043 12.1738V22H148.363V12.1738H151.043ZM149.708 8.32422C150.106 8.32422 150.449 8.41797 150.736 8.60547C151.023 8.78711 151.167 9.12988 151.167 9.63379C151.167 10.1318 151.023 10.4775 150.736 10.6709C150.449 10.8584 150.106 10.9521 149.708 10.9521C149.303 10.9521 148.958 10.8584 148.67 10.6709C148.389 10.4775 148.249 10.1318 148.249 9.63379C148.249 9.12988 148.389 8.78711 148.67 8.60547C148.958 8.41797 149.303 8.32422 149.708 8.32422ZM157.644 20.04C157.937 20.04 158.222 20.0107 158.497 19.9521C158.778 19.8936 159.057 19.8203 159.332 19.7324V21.7275C159.045 21.8564 158.687 21.9619 158.26 22.0439C157.838 22.1318 157.375 22.1758 156.871 22.1758C156.285 22.1758 155.758 22.082 155.289 21.8945C154.826 21.7012 154.46 21.3701 154.19 20.9014C153.927 20.4268 153.795 19.7676 153.795 18.9238V14.1865H152.512V13.0527L153.988 12.1562L154.762 10.082H156.475V12.1738H159.226V14.1865H156.475V18.9238C156.475 19.2988 156.581 19.5801 156.792 19.7676C157.009 19.9492 157.293 20.04 157.644 20.04Z" fill="#0C233C"/>
</svg>
